<svg xmlns="http://www.w3.org/2000/svg" viewBox="0 0 407.33 476.42">
  <defs>
    <style>
      .cls-1 {
        fill: black;
      }

      .cls-2 {
        fill: #30D158;
      }

      @media (prefers-color-scheme: dark) {
        .cls-1 {
          fill: white;
        }
      }
    </style>
  </defs>
  <g>
    <polygon class="cls-2" points="0 360.74 67.96 322.06 67.96 191.97 0 153.29 0 360.74"/>
    <polygon class="cls-2" points="200.51 0 200.51 114.54 311.98 179.82 407.33 119.4 200.51 0"/>
    <polygon class="cls-2" points="74.92 179.82 186.51 114.77 186.51 37.6 7.07 141.2 74.92 179.82"/>
    <polygon class="cls-2" points="387.03 153.29 319.07 191.97 319.07 322.06 387.03 360.74 387.03 153.29"/>
    <polygon class="cls-2" points="312.11 334.21 200.51 399.26 200.51 476.42 379.95 372.82 312.11 334.21"/>
    <polygon class="cls-2" points="7.07 372.82 186.51 476.42 186.51 399.26 74.92 334.21 7.07 372.82"/>
    <polygon class="cls-1" points="81.96 191.92 81.96 322.11 193.51 387.14 305.07 322.11 305.07 191.92 193.51 126.89 81.96 191.92"/>
  </g>
</svg>
