<svg width="277" height="51" viewBox="0 0 277 51" fill="none" xmlns="http://www.w3.org/2000/svg">
    <path d="M9.53875 49V21.352C9.53875 14.44 13.3788 10.12 19.7148 10.12C22.3068 10.12 24.9948 10.792 27.2988 12.136V2.728C24.8988 1.576 21.8268 1 18.8508 1C6.56275 1 0.0347502 9.544 0.0347502 20.968V49H9.53875ZM56.2375 50.056C65.4535 50.056 73.0375 45.736 77.1655 37.672L69.8695 33.928C67.0855 39.112 61.9015 41.608 56.1415 41.608C47.6935 41.608 41.5495 35.944 40.4935 27.88H78.1255V24.04C78.1255 10.888 69.2935 0.615999 55.0855 0.615999C40.9735 0.615999 31.2775 11.656 31.2775 25.192C31.2775 39.688 41.9335 50.056 56.2375 50.056ZM40.8775 21.736C41.8375 14.728 47.0215 9.16 54.9895 9.16C62.7655 9.16 68.2375 14.248 68.6215 21.736H40.8775ZM172.113 50.056C181.329 50.056 188.913 45.736 193.041 37.672L185.745 33.928C182.961 39.112 177.777 41.608 172.017 41.608C163.569 41.608 157.424 35.944 156.369 27.88H194V24.04C194 10.888 185.169 0.615999 170.961 0.615999C156.849 0.615999 147.153 11.656 147.153 25.192C147.153 39.688 157.809 50.056 172.113 50.056ZM156.753 21.736C157.713 14.728 162.897 9.16 170.865 9.16C178.641 9.16 184.113 14.248 184.497 21.736H156.753ZM219.759 50.248C224.655 50.248 227.919 47.368 229.263 41.704L237.039 10.6C237.231 9.64 237.711 9.064 238.575 9.064C239.535 9.064 240.015 9.64 240.303 10.6L247.983 41.704C249.327 47.368 252.591 50.248 257.487 50.248C262.191 50.248 266.127 47.368 267.471 41.608L276.399 1.96H267.567L259.215 39.784C258.927 40.936 258.447 41.512 257.583 41.512C256.623 41.512 256.143 40.936 255.855 39.976L248.271 9.256C246.831 3.496 243.663 0.807997 238.671 0.807997C233.679 0.807997 230.415 3.592 228.975 9.352L221.295 39.976C221.103 40.84 220.527 41.512 219.759 41.512C218.703 41.512 218.319 40.936 218.031 39.784L209.391 1.96H200.463L209.679 41.608C211.023 47.368 215.055 50.248 219.759 50.248Z" fill="white"/>
    <path d="M112.8 9.928C122.208 9.928 127.008 17.512 127.008 26.344V49H136.512V25.192C136.512 11.56 128.16 0.807997 112.8 0.807997C97.6323 0.807997 89.4723 11.56 89.4723 25.288V49H98.9763V26.248C98.9763 17.512 103.584 9.928 112.8 9.928Z" fill="url(#paint0_linear_20_59)"/>
    <defs>
        <linearGradient id="paint0_linear_20_59" x1="74.8348" y1="39.2383" x2="104.14" y2="0.0853178" gradientUnits="userSpaceOnUse">
            <stop stop-color="#020804"/>
            <stop offset="1" stop-color="#30D158"/>
            <stop offset="1" stop-color="#30D158"/>
        </linearGradient>
    </defs>
</svg>
