<svg width="568" height="182" viewBox="0 0 568 182" fill="none" xmlns="http://www.w3.org/2000/svg">
    <defs>
        <clipPath id="clip0_710_831">
            <rect width="156" height="182" fill="white" />
        </clipPath>
        <style>
            .cls-1 {
                fill: #30D158;
            }
        </style>
    </defs>
    <g clip-path="url(#clip0_710_831)">
        <path class="cls-1" d="M0 137.809L26.0274 123.032V73.3357L0 58.5593V137.809Z" />
        <path class="cls-1" d="M76.7917 0V43.7561L119.483 68.6941L156 45.6127L76.7917 0Z" />
        <path class="cls-1" d="M28.693 68.6941L71.43 43.8439V14.3638L2.7077 53.9406L28.693 68.6941Z" />
        <path class="cls-1" d="M148.225 58.5593L122.198 73.3357V123.032L148.225 137.809V58.5593Z" />
        <path class="cls-1" d="M119.532 127.674L76.7917 152.524V182L145.514 142.423L119.532 127.674Z" />
        <path class="cls-1" d="M2.7077 142.423L71.43 182V152.524L28.693 127.674L2.7077 142.423Z" />
        <path d="M31.3892 73.3164V123.051L74.1108 147.894L116.836 123.051V73.3164L74.1108 48.4739L31.3892 73.3164Z" fill="white" />
    </g>
    <path d="M209.847 85.056C195.543 85.056 184.887 74.688 184.887 60.192C184.887 46.656 194.583 35.616 208.695 35.616C222.903 35.616 231.735 45.888 231.735 59.04V62.88H194.103C195.159 70.944 201.303 76.608 209.751 76.608C215.511 76.608 220.695 74.112 223.479 68.928L230.775 72.672C226.647 80.736 219.063 85.056 209.847 85.056ZM194.487 56.736H222.231C221.847 49.248 216.375 44.16 208.599 44.16C200.631 44.16 195.447 49.728 194.487 56.736ZM301.45 35.616C315.658 35.616 323.338 46.176 323.338 59.232V84H313.834V60.768C313.834 52.224 309.61 44.736 300.778 44.736C292.234 44.736 287.914 51.936 287.914 60.576V84H278.41V60.576C278.41 51.936 274.09 44.736 265.354 44.736C256.522 44.736 252.586 52.224 252.586 60.768V84H243.082V59.328C243.082 46.176 250.57 35.616 264.682 35.616C274.09 35.616 280.906 40.416 283.306 47.712C285.898 40.416 292.522 35.616 301.45 35.616ZM358.909 85.056C344.605 85.056 333.949 74.688 333.949 60.192C333.949 46.656 343.645 35.616 357.757 35.616C371.965 35.616 380.797 45.888 380.797 59.04V62.88H343.165C344.221 70.944 350.365 76.608 358.813 76.608C364.573 76.608 369.757 74.112 372.541 68.928L379.837 72.672C375.709 80.736 368.125 85.056 358.909 85.056ZM343.549 56.736H371.293C370.909 49.248 365.437 44.16 357.661 44.16C349.693 44.16 344.509 49.728 343.549 56.736ZM401.648 84H392.144V55.968C392.144 44.544 398.672 36 410.96 36C413.936 36 417.008 36.576 419.408 37.728V47.136C417.104 45.792 414.416 45.12 411.824 45.12C405.488 45.12 401.648 49.44 401.648 56.352V84ZM447.003 85.152C433.371 85.152 423.387 74.016 423.387 60.384C423.387 46.944 434.139 35.808 448.443 35.808C462.651 35.808 473.499 46.368 473.499 60.384V84H464.475V75.744C460.923 81.504 454.683 85.152 447.003 85.152ZM448.443 76.128C457.275 76.128 463.995 69.024 463.995 60.48C463.995 51.84 457.275 44.736 448.443 44.736C439.707 44.736 432.891 51.84 432.891 60.48C432.891 69.024 439.707 76.128 448.443 76.128ZM489.033 15.36H498.537V84H489.033V15.36ZM536.099 85.152C521.795 85.152 511.043 74.112 511.043 60.576C511.043 46.272 521.411 35.808 535.619 35.808C541.955 35.808 547.715 38.592 551.555 42.816L551.651 15.36H561.155V60.576C561.155 74.496 550.307 85.152 536.099 85.152ZM536.099 76.224C544.931 76.224 551.651 69.12 551.651 60.48C551.651 51.936 544.931 44.832 536.099 44.832C527.363 44.832 520.547 51.936 520.547 60.48C520.547 69.12 527.363 76.224 536.099 76.224Z" fill="white" />
    <path class="cls-1" d="M205.025 161.056C196.289 161.056 189.569 157.6 185.921 150.592L193.217 146.56C195.617 151.264 199.457 152.992 204.641 152.992C210.017 152.992 214.145 150.784 214.145 146.656C214.145 136.768 187.169 144.256 187.169 126.304C187.169 118.048 194.465 112 204.737 112C213.473 112 219.425 116.032 222.401 121.504L215.105 125.632C213.089 121.504 209.249 120.064 204.929 120.064C200.513 120.064 196.673 122.368 196.673 126.112C196.673 135.712 223.649 128.704 223.649 146.464C223.649 155.392 215.009 161.056 205.025 161.056ZM256.505 161.248C244.793 161.248 238.553 153.856 238.553 143.104V121.216H229.241V112.96H238.553V100.768H248.057V112.96H266.105V121.216H248.057V142.816C248.057 148.96 251.705 152.608 257.369 152.608C260.441 152.608 263.801 151.456 266.105 149.824V158.56C263.705 160.192 259.961 161.248 256.505 161.248ZM300.78 151.936C309.516 151.936 314.316 144.352 314.316 135.616V112.96H323.82V136.768C323.82 150.4 315.564 161.152 300.78 161.152C286.188 161.152 277.932 150.304 277.932 136.672V112.96H287.436V135.712C287.436 144.352 292.14 151.936 300.78 151.936ZM359.177 161.152C344.873 161.152 334.121 150.112 334.121 136.576C334.121 122.272 344.489 111.808 358.697 111.808C365.033 111.808 370.793 114.592 374.633 118.816L374.729 91.36H384.233V136.576C384.233 150.496 373.385 161.152 359.177 161.152ZM359.177 152.224C368.009 152.224 374.729 145.12 374.729 136.48C374.729 127.936 368.009 120.832 359.177 120.832C350.441 120.832 343.625 127.936 343.625 136.48C343.625 145.12 350.441 152.224 359.177 152.224ZM404.471 103.648C401.015 103.648 398.231 100.864 398.231 97.408C398.231 93.952 401.015 91.072 404.471 91.072C407.927 91.072 410.615 93.952 410.615 97.408C410.615 100.864 407.927 103.648 404.471 103.648ZM399.767 112.96H409.271V160H399.767V112.96ZM446.93 161.152C432.722 161.152 421.778 150.016 421.778 136.384C421.778 122.848 432.818 111.808 446.93 111.808C461.138 111.808 471.89 122.944 471.89 136.384C471.89 150.016 461.042 161.152 446.93 161.152ZM446.93 152.128C455.666 152.128 462.386 145.024 462.386 136.48C462.386 127.84 455.666 120.736 446.93 120.736C438.098 120.736 431.282 127.84 431.282 136.48C431.282 145.024 438.098 152.128 446.93 152.128Z" />
</svg>
